HIERARCHY
ROOT hip
{
  OFFSET 0.0 0.0 0.0
  CHANNELS 6 Xposition Yposition Zposition Zrotation Yrotation Xrotation
  JOINT torso
  {
    OFFSET 0.0 0.0 0.0
    CHANNELS 3 Zrotation Xrotation Yrotation
    JOINT neck
    {
      OFFSET -20.11218299999996 327.95800799999995 66.30578600000035
      CHANNELS 3 Zrotation Xrotation Yrotation
      JOINT head
      {
        OFFSET 18.28939800000012 288.83178699999996 217.81652800000006
        CHANNELS 3 Zrotation Xrotation Yrotation
        End Site
        {
          OFFSET 0.0 0.0 0.0
        }
      }
    }
    JOINT left_collar
    {
      OFFSET -20.11218299999996 327.95800799999995 66.30578600000035
      CHANNELS 3 Zrotation Xrotation Yrotation
      JOINT left_upper_arm
      {
        OFFSET -127.08163400000001 -16.17407199999991 15.44799799999987
        CHANNELS 3 Zrotation Xrotation Yrotation
        JOINT left_forearm
        {
          OFFSET -234.267792 45.78796399999999 109.31286600000021
          CHANNELS 3 Zrotation Xrotation Yrotation
          JOINT left_hand
          {
            OFFSET -259.114014 -33.25433399999997 16.18847699999992
            CHANNELS 3 Zrotation Xrotation Yrotation
            End Site
            {
              OFFSET 0.0 0.0 0.0
            }
          }
        }
      }
    }
    JOINT right_collar
    {
      OFFSET -20.11218299999996 327.95800799999995 66.30578600000035
      CHANNELS 3 Zrotation Xrotation Yrotation
      JOINT right_upper_arm
      {
        OFFSET 164.513184 1.5733030000000099 4.892333999999892
        CHANNELS 3 Zrotation Xrotation Yrotation
        JOINT right_forearm
        {
          OFFSET 260.742027 48.718444999999974 144.35229500000014
          CHANNELS 3 Zrotation Xrotation Yrotation
          JOINT right_hand
          {
            OFFSET 287.85150899999996 -44.57171600000015 13.96813899999961
            CHANNELS 3 Zrotation Xrotation Yrotation
            End Site
            {
              OFFSET 0.0 0.0 0.0
            }
          }
        }
      }
    }
  }
}
MOTION
Frames: 13
Frame Time: 0.01
-838.2532519190052 239.98555377975947 423.76890355949234 9.05378151954803 -2.7472924183518925 -0.3479813922870182 -0.7592652496816694 -1.0281316399880462 0.09705336656611403 1.9407176867173088 -17.893108289375395 -0.5598480005572853 0.0 0.0 0.0 3.1324699034330687 0.8793538417784338 -3.184254006361914 67.35764089446933 28.92649865645557 3.7615368622606367 20.58317873797196 9.821918079058133 -25.926397115423903 0.0 0.0 0.0 0.4384627193062554 -0.06620538689187204 3.9638253792379126 -24.989698898849458 16.74168140454631 29.462484692330133 3.0811698044419176 6.645518900465226 49.00862374961367 0.0 100.0 0.0
-837.9920264170835 240.01107503026356 423.65484116818783 9.073429000530947 -2.8143325537930366 -0.12953759025060918 -0.7497340807532393 -0.9795149235062665 0.09771175120680134 1.9488781295097988 -17.817784240725615 -0.5699410140989326 0.0 0.0 0.0 3.445348230387642 0.864463162371526 -2.793667987007453 66.77745720168416 29.12450539111975 2.801686758094492 21.08793974658303 9.83803647644847 -25.501866525491266 0.0 0.0 0.0 0.4887546361256796 -0.07091454721811888 4.069700956410063 -24.08676623397378 16.057767202488773 30.549265749810814 4.700903304891633 5.581334213948335 47.445431929372226 0.0 100.0 0.0
-837.7734146903109 240.04319962168543 423.5295562298562 9.078287579595013 -2.900793102499523 0.08820010677720415 -0.7312377014675091 -0.9109001429382909 0.09759718783187508 1.9541541902014399 -17.741274643628344 -0.5777404815035655 0.0 0.0 0.0 3.6780315587350785 0.8460087954091212 -2.4660336352512675 66.31206291203658 29.290469543175416 2.0043770632015616 21.629599421822757 9.868644854854836 -25.09576238240066 0.0 0.0 0.0 0.5382663726725313 -0.07601281262707951 4.199832998221957 -23.239697449464526 15.388845028962649 31.570074244522186 6.150371385058856 4.6463826592516195 45.76989461312531 0.0 100.0 0.0
-837.5870037682911 240.08215268063546 423.39383343395747 9.070598371575663 -3.0019900351933697 0.3064037383996705 -0.7049622704122128 -0.8273331349724491 0.0967041446238112 1.9561928333247653 -17.664129125052373 -0.5829362359169702 0.0 0.0 0.0 3.826125971645376 0.8258723568108702 -2.2101770732469075 65.96667371819562 29.424315709358645 1.3828619114209908 22.199870091181857 9.91333457489093 -24.714478038814736 0.0 0.0 0.0 0.5858757537503905 -0.08138402639723939 4.349530553727984 -22.448708633255492 14.739579365338919 32.52498168611962 7.434629514452464 3.8369064479691253 44.019518281483485 0.0 100.0 0.0
-837.4216433419987 240.12765448157174 423.24864242571755 9.05273633222764 -3.113394375491205 0.5259567074580923 -0.6721840789047364 -0.7337140524782582 0.09505293272333447 1.9546334653898862 -17.5868726382916 -0.585213414580128 0.0 0.0 0.0 3.887244004009624 0.8056781013612853 -2.0329305591927125 65.74327434960351 29.525670643303112 0.9462509124570347 22.788839926648482 9.971541841319118 -24.364591901190188 0.0 0.0 0.0 0.6305287771626369 -0.08690075647437309 4.514061188810797 -21.7135729232852 14.114216838263511 33.41484754422076 8.560193982166023 3.1455926783482266 42.22827249544974 0.0 100.0 0.0
-837.2656431371166 240.17894052068567 423.0950852156908 9.027131688655013 -3.230750649891355 0.7473601863377483 -0.6342183205778571 -0.6346575749596365 0.09268239886523345 1.9491074016996546 -17.50999624141956 -0.5842524018187935 0.0 0.0 0.0 3.8609970824453064 0.7866636589150555 -1.938969190842147 65.6406042763361 29.593785309310974 0.6992120060379742 23.385146014786436 10.04259143703184 -24.05279955157377 0.0 0.0 0.0 0.6712704781153704 -0.09242824108168331 4.688781219751896 -21.03366204782228 13.516512411290055 34.24124309357687 9.535054155012292 2.5626922564551737 40.426213668277576 0.0 100.0 0.0
-837.1069900995928 240.23479831133656 422.93434475423544 8.996198733386839 -3.3501751521765777 0.9706693681558755 -0.592373285861264 -0.5343783447726118 0.08964399145466093 1.9392386639493933 -17.433947414817183 -0.5797298711777017 0.0 0.0 0.0 3.7489346494492506 0.7695969252442298 -1.930716495258527 65.65423346407765 29.62756785293516 0.641785154571831 23.976191133237933 10.125731251868668 -23.785850115536707 0.0 0.0 0.0 0.7072711074603493 -0.09782927521100195 4.869249447758686 -20.407985963421233 12.949672055789916 35.00637261869998 10.3685816975662 2.0770183139117404 38.639332682321644 0.0 100.0 0.0
-836.9335793289191 240.2936180926181 422.76763805453504 8.96227363163394 -3.4682332415054185 1.1954610009989386 -0.5479111908039188 -0.4366029889133253 0.08599736723505526 1.9246466005195912 -17.35911989063558 -0.5713213286887657 0.0 0.0 0.0 3.554439670906011 0.7547445112358425 -2.0083156038853187 65.77672286107394 29.62572491415152 0.7693150338383015 24.548395029381645 10.220151334064637 -23.570482868572203 0.0 0.0 0.0 0.7378468944520038 -0.10296964196770207 5.05132147675578 -19.83523027396059 12.416312723171535 35.71299336086023 11.071340194113171 1.6767856654749567 36.889579955934245 0.0 100.0 0.0
-836.7334525092009 240.35345460817953 422.596176393383 8.927562032641658 -3.5819953672551317 1.420831822138917 -0.5020161847413618 -0.3445090648369521 0.08180742620266034 1.9049507565278974 -17.285843167869402 -0.5587054975597573 0.0 0.0 0.0 3.2825875178455752 0.7418918330026025 -2.1696642891465396 65.9978709864126 29.58699580630587 1.0725168086797887 25.08747022280729 10.324981596793716 -23.41335790100829 0.0 0.0 0.0 0.7624749659911682 -0.10772363784299999 5.231222766081098 -19.313791372965113 11.918439744541944 36.36433519419225 11.654816435208211 1.3502747622919697 35.19502239373584 0.0 100.0 0.0
-836.4950376002013 240.41209719599036 422.4211341408736 8.8940966232894 -3.6890720708963007 1.6454257552156415 -0.4557695993557327 -0.2606902124556735 0.07714249289861987 1.8797782705179684 -17.214372090776234 -0.541570753751379 0.0 0.0 0.0 2.939972130197196 0.7304099860090689 -2.4105138028897652 66.3050524029443 29.51045244061998 1.537692126214472 25.578713261144497 10.439263238890215 -23.320972560214418 0.0 0.0 0.0 0.780802305632952 -0.11197924616292926 5.40559975020882 -18.84180944919225 11.457441131171084 36.964020743648504 12.13110342001207 1.0863214073576226 33.57009068566497 0.0 100.0 0.0
-836.2073837015452 240.4671455629743 422.24362678310825 8.86370431312671 -3.7876288113742986 1.8674862000415189 -0.4101321865349438 -0.18714579470835088 0.07207329409284448 1.8487738605207742 -17.144877048361504 -0.5196236405779217 0.0 0.0 0.0 2.534500871117948 0.7193602618428226 -2.724632320416331 66.68365362799776 29.395828480271664 2.1471101915032187 26.00730513020519 10.561890560683914 -23.299553605009148 0.0 0.0 0.0 0.7926489235630373 -0.11564257038547311 5.5715495469109 -18.417199638989572 11.034097673433681 37.51598648519986 12.51256658522289 0.8746465027960365 32.02588179432354 0.0 100.0 0.0
-835.8603852559281 240.5160887556427 422.06469781021667 8.837982464867231 -3.8763820320780895 2.0849285784070095 -0.3659329036090894 -0.1252924648240995 0.06667239306949696 1.8116122163872423 -17.077435481879583 -0.4925992858434665 0.0 0.0 0.0 2.075158296890102 0.7076237923305684 -3.104033217513024 67.11760604269962 29.24383527426932 2.879560063161393 26.358618908740425 10.69152240908859 -23.35491398787708 0.0 0.0 0.0 0.7980056422411862 -0.1186412334427145 5.726629851277812 -18.03768169847296 10.648607258727665 38.024405270881395 12.811521199584549 0.7060482964498364 30.5704889609012 0.0 100.0 0.0
-835.4449901106719 240.55638496917564 421.8853134161097 8.818283446822859 -3.9545783887474117 2.2954275902684023 -0.32386370337974896 -0.07599446997522946 0.06101380322288486 1.768012370549908 -17.01202544435172 -0.46027334438125295 0.0 0.0 0.0 1.571739602254571 0.6940416206541982 -3.539266072154421 67.59000413827268 29.056420970594722 3.711065665700034 26.618538023567076 10.82646621433942 -23.49226352182275 0.0 0.0 0.0 0.797027065082715 -0.12092656282690072 5.86885147064092 -17.700808605310336 10.300621464197588 38.49361067704218 13.039942508140362 0.5724835366939967 29.20933900576164 0.0 100.0 0.0
